<svg xmlns="http://www.w3.org/2000/svg" xmlns:xlink="http://www.w3.org/1999/xlink" width="500" zoomAndPan="magnify" viewBox="0 0 375 374.999991" height="500" preserveAspectRatio="xMidYMid meet" version="1.0"><defs><g/></defs><path fill="#5271ff" d="M 53.882812 81.945312 L 321.148438 81.945312 C 349.820312 81.945312 373.066406 105.191406 373.066406 133.867188 L 373.066406 237.703125 C 373.066406 266.375 349.820312 289.621094 321.148438 289.621094 L 53.882812 289.621094 C 25.210938 289.621094 1.964844 266.375 1.964844 237.703125 L 1.964844 133.867188 C 1.964844 105.191406 25.210938 81.945312 53.882812 81.945312 Z M 53.882812 81.945312 " fill-opacity="1" fill-rule="nonzero"/><g fill="#98e2ff" fill-opacity="1"><g transform="translate(49.277754, 228.433737)"><g><path d="M 10.625 -84.421875 L 36.90625 -84.421875 C 48.875 -84.421875 57.5625 -82.71875 62.96875 -79.3125 C 68.382812 -75.90625 71.09375 -70.488281 71.09375 -63.0625 C 71.09375 -58.019531 69.90625 -53.878906 67.53125 -50.640625 C 65.164062 -47.410156 62.019531 -45.46875 58.09375 -44.8125 L 58.09375 -44.234375 C 63.445312 -43.035156 67.304688 -40.800781 69.671875 -37.53125 C 72.035156 -34.257812 73.21875 -29.910156 73.21875 -24.484375 C 73.21875 -16.785156 70.4375 -10.78125 64.875 -6.46875 C 59.3125 -2.15625 51.757812 0 42.21875 0 L 10.625 0 Z M 28.53125 -50.984375 L 38.921875 -50.984375 C 43.773438 -50.984375 47.285156 -51.734375 49.453125 -53.234375 C 51.628906 -54.742188 52.71875 -57.226562 52.71875 -60.6875 C 52.71875 -63.925781 51.535156 -66.25 49.171875 -67.65625 C 46.804688 -69.0625 43.0625 -69.765625 37.9375 -69.765625 L 28.53125 -69.765625 Z M 28.53125 -36.78125 L 28.53125 -14.78125 L 40.1875 -14.78125 C 45.113281 -14.78125 48.75 -15.722656 51.09375 -17.609375 C 53.445312 -19.492188 54.625 -22.382812 54.625 -26.28125 C 54.625 -33.28125 49.617188 -36.78125 39.609375 -36.78125 Z M 28.53125 -36.78125 "/></g></g></g><g fill="#98e2ff" fill-opacity="1"><g transform="translate(128.724463, 228.433737)"><g><path d="M 79.34375 -84.421875 L 79.34375 -29.796875 C 79.34375 -23.554688 77.945312 -18.085938 75.15625 -13.390625 C 72.363281 -8.703125 68.328125 -5.101562 63.046875 -2.59375 C 57.773438 -0.09375 51.539062 1.15625 44.34375 1.15625 C 33.488281 1.15625 25.054688 -1.625 19.046875 -7.1875 C 13.046875 -12.75 10.046875 -20.363281 10.046875 -30.03125 L 10.046875 -84.421875 L 27.890625 -84.421875 L 27.890625 -32.75 C 27.890625 -26.238281 29.195312 -21.460938 31.8125 -18.421875 C 34.4375 -15.378906 38.769531 -13.859375 44.8125 -13.859375 C 50.664062 -13.859375 54.910156 -15.390625 57.546875 -18.453125 C 60.179688 -21.515625 61.5 -26.316406 61.5 -32.859375 L 61.5 -84.421875 Z M 79.34375 -84.421875 "/></g></g></g><g fill="#98e2ff" fill-opacity="1"><g transform="translate(218.10201, 228.433737)"><g><path d="M 36.90625 -49.65625 L 54.515625 -84.421875 L 73.796875 -84.421875 L 45.796875 -32.859375 L 45.796875 0 L 28 0 L 28 -32.28125 L 0 -84.421875 L 19.40625 -84.421875 Z M 36.90625 -49.65625 "/></g></g></g><g fill="#98e2ff" fill-opacity="1"><g transform="translate(291.89045, 228.433737)"><g><path d="M 24.015625 -28 L 9.9375 -28 L 6.984375 -84.421875 L 26.96875 -84.421875 Z M 6.75 -8.25 C 6.75 -11.488281 7.613281 -13.9375 9.34375 -15.59375 C 11.082031 -17.25 13.609375 -18.078125 16.921875 -18.078125 C 20.117188 -18.078125 22.59375 -17.226562 24.34375 -15.53125 C 26.09375 -13.84375 26.96875 -11.414062 26.96875 -8.25 C 26.96875 -5.21875 26.082031 -2.820312 24.3125 -1.0625 C 22.539062 0.6875 20.078125 1.5625 16.921875 1.5625 C 13.679688 1.5625 11.175781 0.707031 9.40625 -1 C 7.632812 -2.71875 6.75 -5.132812 6.75 -8.25 Z M 6.75 -8.25 "/></g></g></g></svg>