<svg xmlns="http://www.w3.org/2000/svg" xmlns:xlink="http://www.w3.org/1999/xlink" width="500" zoomAndPan="magnify" viewBox="0 0 375 374.999991" height="500" preserveAspectRatio="xMidYMid meet" version="1.0"><defs><g/></defs><path fill="#5271ff" d="M 21.691406 147.433594 L 353.308594 147.433594 C 358.535156 147.433594 363.550781 149.507812 367.246094 153.207031 C 370.941406 156.902344 373.019531 161.914062 373.019531 167.140625 L 373.019531 206.5625 C 373.019531 211.789062 370.941406 216.804688 367.246094 220.5 C 363.550781 224.195312 358.535156 226.273438 353.308594 226.273438 L 21.691406 226.273438 C 10.808594 226.273438 1.984375 217.449219 1.984375 206.5625 L 1.984375 167.140625 C 1.984375 156.257812 10.808594 147.433594 21.691406 147.433594 Z M 21.691406 147.433594 " fill-opacity="1" fill-rule="nonzero"/><g fill="#98e2ff" fill-opacity="1"><g transform="translate(19.944446, 203.043365)"><g><path d="M 17.640625 -26.84375 C 15.085938 -26.84375 13.109375 -25.882812 11.703125 -23.96875 C 10.296875 -22.050781 9.59375 -19.375 9.59375 -15.9375 C 9.59375 -8.789062 12.273438 -5.21875 17.640625 -5.21875 C 19.890625 -5.21875 22.617188 -5.78125 25.828125 -6.90625 L 25.828125 -1.203125 C 23.191406 -0.109375 20.253906 0.4375 17.015625 0.4375 C 12.347656 0.4375 8.78125 -0.972656 6.3125 -3.796875 C 3.84375 -6.628906 2.609375 -10.691406 2.609375 -15.984375 C 2.609375 -19.316406 3.210938 -22.234375 4.421875 -24.734375 C 5.640625 -27.242188 7.382812 -29.164062 9.65625 -30.5 C 11.925781 -31.832031 14.585938 -32.5 17.640625 -32.5 C 20.753906 -32.5 23.882812 -31.75 27.03125 -30.25 L 24.828125 -24.71875 C 23.628906 -25.289062 22.425781 -25.785156 21.21875 -26.203125 C 20.007812 -26.628906 18.816406 -26.84375 17.640625 -26.84375 Z M 17.640625 -26.84375 "/></g></g></g><g fill="#98e2ff" fill-opacity="1"><g transform="translate(48.548429, 203.043365)"><g><path d="M 8.828125 -12.296875 C 8.828125 -9.867188 9.222656 -8.035156 10.015625 -6.796875 C 10.816406 -5.554688 12.117188 -4.9375 13.921875 -4.9375 C 15.703125 -4.9375 16.984375 -5.550781 17.765625 -6.78125 C 18.546875 -8.019531 18.9375 -9.859375 18.9375 -12.296875 C 18.9375 -14.722656 18.539062 -16.539062 17.75 -17.75 C 16.96875 -18.96875 15.675781 -19.578125 13.875 -19.578125 C 12.09375 -19.578125 10.804688 -18.972656 10.015625 -17.765625 C 9.222656 -16.554688 8.828125 -14.734375 8.828125 -12.296875 Z M 25.78125 -12.296875 C 25.78125 -8.304688 24.726562 -5.1875 22.625 -2.9375 C 20.519531 -0.6875 17.585938 0.4375 13.828125 0.4375 C 11.472656 0.4375 9.394531 -0.078125 7.59375 -1.109375 C 5.800781 -2.140625 4.421875 -3.617188 3.453125 -5.546875 C 2.492188 -7.472656 2.015625 -9.722656 2.015625 -12.296875 C 2.015625 -16.296875 3.054688 -19.40625 5.140625 -21.625 C 7.234375 -23.851562 10.175781 -24.96875 13.96875 -24.96875 C 16.3125 -24.96875 18.382812 -24.453125 20.1875 -23.421875 C 21.988281 -22.398438 23.367188 -20.929688 24.328125 -19.015625 C 25.296875 -17.109375 25.78125 -14.867188 25.78125 -12.296875 Z M 25.78125 -12.296875 "/></g></g></g><g fill="#98e2ff" fill-opacity="1"><g transform="translate(76.341418, 203.043365)"><g><path d="M 26.125 0 L 19.4375 0 L 19.4375 -14.3125 C 19.4375 -16.082031 19.125 -17.410156 18.5 -18.296875 C 17.875 -19.179688 16.875 -19.625 15.5 -19.625 C 13.625 -19.625 12.269531 -19 11.4375 -17.75 C 10.601562 -16.5 10.1875 -14.425781 10.1875 -11.53125 L 10.1875 0 L 3.5 0 L 3.5 -24.5 L 8.609375 -24.5 L 9.515625 -21.375 L 9.890625 -21.375 C 10.628906 -22.550781 11.648438 -23.441406 12.953125 -24.046875 C 14.265625 -24.660156 15.753906 -24.96875 17.421875 -24.96875 C 20.273438 -24.96875 22.4375 -24.195312 23.90625 -22.65625 C 25.382812 -21.113281 26.125 -18.890625 26.125 -15.984375 Z M 26.125 0 "/></g></g></g><g fill="#98e2ff" fill-opacity="1"><g transform="translate(105.84407, 203.043365)"><g><path d="M 26.125 0 L 19.4375 0 L 19.4375 -14.3125 C 19.4375 -16.082031 19.125 -17.410156 18.5 -18.296875 C 17.875 -19.179688 16.875 -19.625 15.5 -19.625 C 13.625 -19.625 12.269531 -19 11.4375 -17.75 C 10.601562 -16.5 10.1875 -14.425781 10.1875 -11.53125 L 10.1875 0 L 3.5 0 L 3.5 -24.5 L 8.609375 -24.5 L 9.515625 -21.375 L 9.890625 -21.375 C 10.628906 -22.550781 11.648438 -23.441406 12.953125 -24.046875 C 14.265625 -24.660156 15.753906 -24.96875 17.421875 -24.96875 C 20.273438 -24.96875 22.4375 -24.195312 23.90625 -22.65625 C 25.382812 -21.113281 26.125 -18.890625 26.125 -15.984375 Z M 26.125 0 "/></g></g></g><g fill="#98e2ff" fill-opacity="1"><g transform="translate(135.346722, 203.043365)"><g><path d="M 13.65625 -20.203125 C 12.238281 -20.203125 11.128906 -19.753906 10.328125 -18.859375 C 9.523438 -17.960938 9.0625 -16.6875 8.9375 -15.03125 L 18.328125 -15.03125 C 18.296875 -16.6875 17.863281 -17.960938 17.03125 -18.859375 C 16.195312 -19.753906 15.070312 -20.203125 13.65625 -20.203125 Z M 14.59375 0.4375 C 10.65625 0.4375 7.570312 -0.648438 5.34375 -2.828125 C 3.125 -5.003906 2.015625 -8.085938 2.015625 -12.078125 C 2.015625 -16.179688 3.039062 -19.351562 5.09375 -21.59375 C 7.144531 -23.84375 9.984375 -24.96875 13.609375 -24.96875 C 17.078125 -24.96875 19.773438 -23.976562 21.703125 -22 C 23.628906 -20.03125 24.59375 -17.304688 24.59375 -13.828125 L 24.59375 -10.59375 L 8.796875 -10.59375 C 8.867188 -8.6875 9.429688 -7.195312 10.484375 -6.125 C 11.535156 -5.0625 13.007812 -4.53125 14.90625 -4.53125 C 16.382812 -4.53125 17.78125 -4.679688 19.09375 -4.984375 C 20.40625 -5.296875 21.78125 -5.789062 23.21875 -6.46875 L 23.21875 -1.296875 C 22.039062 -0.710938 20.785156 -0.28125 19.453125 0 C 18.128906 0.289062 16.507812 0.4375 14.59375 0.4375 Z M 14.59375 0.4375 "/></g></g></g><g fill="#98e2ff" fill-opacity="1"><g transform="translate(161.868423, 203.043365)"><g><path d="M 13.453125 0.4375 C 5.828125 0.4375 2.015625 -3.75 2.015625 -12.125 C 2.015625 -16.289062 3.050781 -19.472656 5.125 -21.671875 C 7.195312 -23.867188 10.171875 -24.96875 14.046875 -24.96875 C 16.878906 -24.96875 19.421875 -24.410156 21.671875 -23.296875 L 19.703125 -18.125 C 18.648438 -18.550781 17.671875 -18.898438 16.765625 -19.171875 C 15.859375 -19.441406 14.953125 -19.578125 14.046875 -19.578125 C 10.566406 -19.578125 8.828125 -17.109375 8.828125 -12.171875 C 8.828125 -7.367188 10.566406 -4.96875 14.046875 -4.96875 C 15.335938 -4.96875 16.53125 -5.140625 17.625 -5.484375 C 18.71875 -5.828125 19.8125 -6.367188 20.90625 -7.109375 L 20.90625 -1.375 C 19.820312 -0.6875 18.726562 -0.210938 17.625 0.046875 C 16.53125 0.304688 15.140625 0.4375 13.453125 0.4375 Z M 13.453125 0.4375 "/></g></g></g><g fill="#98e2ff" fill-opacity="1"><g transform="translate(184.948878, 203.043365)"><g><path d="M 13.828125 -4.890625 C 14.992188 -4.890625 16.398438 -5.144531 18.046875 -5.65625 L 18.046875 -0.671875 C 16.378906 0.0664062 14.332031 0.4375 11.90625 0.4375 C 9.226562 0.4375 7.28125 -0.234375 6.0625 -1.578125 C 4.84375 -2.929688 4.234375 -4.960938 4.234375 -7.671875 L 4.234375 -19.484375 L 1.03125 -19.484375 L 1.03125 -22.3125 L 4.71875 -24.546875 L 6.640625 -29.71875 L 10.921875 -29.71875 L 10.921875 -24.5 L 17.78125 -24.5 L 17.78125 -19.484375 L 10.921875 -19.484375 L 10.921875 -7.671875 C 10.921875 -6.722656 11.1875 -6.019531 11.71875 -5.5625 C 12.25 -5.113281 12.953125 -4.890625 13.828125 -4.890625 Z M 13.828125 -4.890625 "/></g></g></g><g fill="#98e2ff" fill-opacity="1"><g transform="translate(204.434657, 203.043365)"><g/></g></g><g fill="#98e2ff" fill-opacity="1"><g transform="translate(216.095438, 203.043365)"><g><path d="M 23.65625 0 L 21.765625 -8.578125 L 19.21875 -19.40625 L 19.0625 -19.40625 L 14.59375 0 L 7.40625 0 L 0.4375 -24.5 L 7.109375 -24.5 L 9.921875 -13.65625 C 10.378906 -11.707031 10.84375 -9.023438 11.3125 -5.609375 L 11.4375 -5.609375 C 11.5 -6.722656 11.753906 -8.484375 12.203125 -10.890625 L 12.5625 -12.75 L 15.578125 -24.5 L 22.953125 -24.5 L 25.828125 -12.75 C 25.878906 -12.4375 25.96875 -11.960938 26.09375 -11.328125 C 26.21875 -10.703125 26.335938 -10.035156 26.453125 -9.328125 C 26.566406 -8.617188 26.671875 -7.921875 26.765625 -7.234375 C 26.867188 -6.554688 26.925781 -6.015625 26.9375 -5.609375 L 27.0625 -5.609375 C 27.195312 -6.660156 27.429688 -8.101562 27.765625 -9.9375 C 28.109375 -11.769531 28.351562 -13.007812 28.5 -13.65625 L 31.4375 -24.5 L 37.984375 -24.5 L 30.921875 0 Z M 23.65625 0 "/></g></g></g><g fill="#98e2ff" fill-opacity="1"><g transform="translate(254.519026, 203.043365)"><g><path d="M 19.0625 0 L 17.78125 -3.328125 L 17.59375 -3.328125 C 16.46875 -1.910156 15.3125 -0.925781 14.125 -0.375 C 12.9375 0.164062 11.382812 0.4375 9.46875 0.4375 C 7.113281 0.4375 5.257812 -0.234375 3.90625 -1.578125 C 2.5625 -2.921875 1.890625 -4.835938 1.890625 -7.328125 C 1.890625 -9.921875 2.796875 -11.832031 4.609375 -13.0625 C 6.429688 -14.300781 9.175781 -14.988281 12.84375 -15.125 L 17.09375 -15.25 L 17.09375 -16.328125 C 17.09375 -18.816406 15.820312 -20.0625 13.28125 -20.0625 C 11.320312 -20.0625 9.019531 -19.46875 6.375 -18.28125 L 4.171875 -22.796875 C 6.984375 -24.273438 10.109375 -25.015625 13.546875 -25.015625 C 16.835938 -25.015625 19.359375 -24.296875 21.109375 -22.859375 C 22.859375 -21.429688 23.734375 -19.253906 23.734375 -16.328125 L 23.734375 0 Z M 17.09375 -11.359375 L 14.515625 -11.265625 C 12.566406 -11.203125 11.117188 -10.847656 10.171875 -10.203125 C 9.222656 -9.566406 8.75 -8.59375 8.75 -7.28125 C 8.75 -5.394531 9.828125 -4.453125 11.984375 -4.453125 C 13.535156 -4.453125 14.773438 -4.894531 15.703125 -5.78125 C 16.628906 -6.675781 17.09375 -7.863281 17.09375 -9.34375 Z M 17.09375 -11.359375 "/></g></g></g><g fill="#98e2ff" fill-opacity="1"><g transform="translate(281.632533, 203.043365)"><g><path d="M 10.1875 0 L 3.5 0 L 3.5 -34.109375 L 10.1875 -34.109375 Z M 10.1875 0 "/></g></g></g><g fill="#98e2ff" fill-opacity="1"><g transform="translate(295.331759, 203.043365)"><g><path d="M 10.1875 0 L 3.5 0 L 3.5 -34.109375 L 10.1875 -34.109375 Z M 10.1875 0 "/></g></g></g><g fill="#98e2ff" fill-opacity="1"><g transform="translate(309.030985, 203.043365)"><g><path d="M 13.65625 -20.203125 C 12.238281 -20.203125 11.128906 -19.753906 10.328125 -18.859375 C 9.523438 -17.960938 9.0625 -16.6875 8.9375 -15.03125 L 18.328125 -15.03125 C 18.296875 -16.6875 17.863281 -17.960938 17.03125 -18.859375 C 16.195312 -19.753906 15.070312 -20.203125 13.65625 -20.203125 Z M 14.59375 0.4375 C 10.65625 0.4375 7.570312 -0.648438 5.34375 -2.828125 C 3.125 -5.003906 2.015625 -8.085938 2.015625 -12.078125 C 2.015625 -16.179688 3.039062 -19.351562 5.09375 -21.59375 C 7.144531 -23.84375 9.984375 -24.96875 13.609375 -24.96875 C 17.078125 -24.96875 19.773438 -23.976562 21.703125 -22 C 23.628906 -20.03125 24.59375 -17.304688 24.59375 -13.828125 L 24.59375 -10.59375 L 8.796875 -10.59375 C 8.867188 -8.6875 9.429688 -7.195312 10.484375 -6.125 C 11.535156 -5.0625 13.007812 -4.53125 14.90625 -4.53125 C 16.382812 -4.53125 17.78125 -4.679688 19.09375 -4.984375 C 20.40625 -5.296875 21.78125 -5.789062 23.21875 -6.46875 L 23.21875 -1.296875 C 22.039062 -0.710938 20.785156 -0.28125 19.453125 0 C 18.128906 0.289062 16.507812 0.4375 14.59375 0.4375 Z M 14.59375 0.4375 "/></g></g></g><g fill="#98e2ff" fill-opacity="1"><g transform="translate(335.552685, 203.043365)"><g><path d="M 13.828125 -4.890625 C 14.992188 -4.890625 16.398438 -5.144531 18.046875 -5.65625 L 18.046875 -0.671875 C 16.378906 0.0664062 14.332031 0.4375 11.90625 0.4375 C 9.226562 0.4375 7.28125 -0.234375 6.0625 -1.578125 C 4.84375 -2.929688 4.234375 -4.960938 4.234375 -7.671875 L 4.234375 -19.484375 L 1.03125 -19.484375 L 1.03125 -22.3125 L 4.71875 -24.546875 L 6.640625 -29.71875 L 10.921875 -29.71875 L 10.921875 -24.5 L 17.78125 -24.5 L 17.78125 -19.484375 L 10.921875 -19.484375 L 10.921875 -7.671875 C 10.921875 -6.722656 11.1875 -6.019531 11.71875 -5.5625 C 12.25 -5.113281 12.953125 -4.890625 13.828125 -4.890625 Z M 13.828125 -4.890625 "/></g></g></g></svg>