<svg xmlns="http://www.w3.org/2000/svg" xmlns:xlink="http://www.w3.org/1999/xlink" width="1366" zoomAndPan="magnify" viewBox="0 0 1024.5 574.499983" height="766" preserveAspectRatio="xMidYMid meet" version="1.0"><defs><filter x="0%" y="0%" width="100%" height="100%" id="4fe4725ade"><feColorMatrix values="0 0 0 0 1 0 0 0 0 1 0 0 0 0 1 0 0 0 1 0" color-interpolation-filters="sRGB"/></filter><mask id="f44921f94e"><g filter="url(#4fe4725ade)"><rect x="-102.45" width="1229.4" fill="#000000" y="-57.449998" height="689.39998" fill-opacity="0.34"/></g></mask><clipPath id="fa8d3fbac5"><path d="M 0.425781 0.0664062 L 333.210938 0.0664062 L 333.210938 169.4375 L 0.425781 169.4375 Z M 0.425781 0.0664062 " clip-rule="nonzero"/></clipPath><clipPath id="2fec2aa528"><path d="M 10.917969 0.0664062 L 322.511719 0.0664062 C 328.304688 0.0664062 333.003906 4.765625 333.003906 10.558594 L 333.003906 158.945312 C 333.003906 164.738281 328.304688 169.4375 322.511719 169.4375 L 10.917969 169.4375 C 5.125 169.4375 0.425781 164.738281 0.425781 158.945312 L 0.425781 10.558594 C 0.425781 4.765625 5.125 0.0664062 10.917969 0.0664062 Z M 10.917969 0.0664062 " clip-rule="nonzero"/></clipPath><clipPath id="f9e3b1cfe7"><rect x="0" width="334" y="0" height="170"/></clipPath></defs><g mask="url(#f44921f94e)"><g transform="matrix(1, 0, 0, 1, 245, 40)"><g clip-path="url(#f9e3b1cfe7)"><g clip-path="url(#fa8d3fbac5)"><g clip-path="url(#2fec2aa528)"><path fill="#36498b" d="M 0.425781 0.0664062 L 333.210938 0.0664062 L 333.210938 169.4375 L 0.425781 169.4375 Z M 0.425781 0.0664062 " fill-opacity="1" fill-rule="nonzero"/></g></g></g></g></g></svg>